<svg width="802" height="177" viewBox="0 0 802 177" xmlns="http://www.w3.org/2000/svg"><title>Logo on dark 3</title><desc>Created with Sketch Beta.</desc><g fill="none" fill-rule="evenodd"><g><g><g transform="translate(-110 -689) translate(110 689)"><path d="M29.12 147.875l48.048 27.728c2.392 1.38 6.272 1.38 8.664 0l48.05-27.728c-5.827-2.44-10.634-6.83-13.608-12.35l-34.45 19.846c-2.388 1.377-6.266 1.374-8.65 0l-34.448-19.846c-2.974 5.522-7.78 9.91-13.607 12.35zM3 99.78V47.2c0-2.763 1.94-6.12 4.332-7.502L54.685 12.37C54.237 14.343 54 16.394 54 18.5c0 4.27.973 8.313 2.71 11.92L24.325 49.076C21.942 50.45 20 53.807 20 56.567V95.04c-.497-.026-.997-.04-1.5-.04-5.75 0-11.087 1.764-15.5 4.78zm157 0V47.2c0-2.762-1.94-6.12-4.332-7.502L108.315 12.37c.448 1.972.685 4.023.685 6.13 0 4.27-.973 8.313-2.71 11.92l32.385 18.657c2.39 1.376 4.325 4.73 4.325 7.49V95.04c.497-.026.997-.04 1.5-.04 5.75 0 11.087 1.764 15.5 4.78z" fill="#00ABF0"/><circle fill="#181928" cx="81.5" cy="18.5" r="18.5"/><circle fill="#181928" cx="144.5" cy="122.5" r="18.5"/><circle fill="#181928" cx="18.5" cy="122.5" r="18.5"/></g><path d="M246.808 132.22c-.81 0-1.217-.405-1.217-1.216v-70.73c0-.486-.243-.73-.73-.73h-22.643c-.81 0-1.217-.406-1.217-1.217v-7.67c0-.81.406-1.217 1.217-1.217H279.8c.81 0 1.216.406 1.216 1.217v7.67c0 .81-.406 1.217-1.217 1.217h-22.644c-.487 0-.73.244-.73.73v70.73c0 .81-.406 1.217-1.218 1.217h-8.4zm41.512 0c-.81 0-1.217-.405-1.217-1.216V75.126c0-.81.406-1.217 1.217-1.217h7.79c.813 0 1.22.405 1.22 1.216v5.966h.12c1.3-2.516 3.227-4.566 5.783-6.148 2.557-1.583 5.783-2.374 9.678-2.374 2.355 0 4.566.385 6.636 1.156 2.07.77 3.834 1.847 5.295 3.226.57.57.65 1.137.245 1.705l-4.504 5.965c-.486.65-1.054.73-1.704.243-1.38-.892-2.8-1.582-4.26-2.07-1.46-.486-3.044-.73-4.748-.73-4.464 0-7.67 1.563-9.617 4.687-1.947 3.125-2.92 7.244-2.92 12.357v31.894c0 .81-.407 1.217-1.22 1.217h-7.79zm81.077 0c-.812 0-1.217-.405-1.217-1.216v-5.113h-.122c-1.38 2.192-3.49 4.018-6.33 5.48-2.84 1.46-6.493 2.19-10.957 2.19-2.758 0-5.335-.365-7.73-1.096-2.393-.73-4.463-1.826-6.208-3.287-1.745-1.46-3.124-3.286-4.14-5.478-1.013-2.192-1.52-4.748-1.52-7.67 0-6.168 2.008-10.713 6.026-13.635 4.017-2.92 9.596-4.382 16.738-4.382h13.27c.487 0 .73-.244.73-.73v-4.26c0-4.06-.974-6.98-2.922-8.766-1.947-1.786-5.64-2.68-11.078-2.68-3.327 0-6.086.387-8.278 1.158-2.19.77-4.14 1.765-5.843 2.983-.73.568-1.3.527-1.704-.122l-3.286-5.6c-.325-.65-.244-1.217.243-1.704 2.19-1.705 4.95-3.084 8.278-4.14 3.328-1.055 7.183-1.582 11.565-1.582 8.278 0 14.162 1.522 17.652 4.565 3.49 3.044 5.235 8.136 5.235 15.278v38.59c0 .812-.406 1.218-1.218 1.218h-7.183zm-16.19-7.425c4.625 0 8.236-.994 10.834-2.983 2.598-1.988 3.896-4.808 3.896-8.46V106.9c0-.487-.243-.73-.73-.73H355.52c-5.114 0-8.807.75-11.08 2.25-2.272 1.503-3.408 3.917-3.408 7.245 0 3.003 1.055 5.275 3.165 6.817 2.11 1.542 5.113 2.313 9.01 2.313zm80.59 7.426c-.813 0-1.22-.405-1.22-1.216v-5.6h-.12c-1.38 2.353-3.39 4.3-6.026 5.843-2.637 1.542-6.147 2.313-10.53 2.313-5.113 0-9.373-1.177-12.782-3.53-3.41-2.354-5.843-5.844-7.304-10.47-.812-2.353-1.36-4.788-1.644-7.304-.284-2.516-.426-5.6-.426-9.252 0-3.652.142-6.716.426-9.19.284-2.476.832-4.89 1.644-7.244 1.46-4.626 3.895-8.116 7.304-10.47 3.41-2.353 7.67-3.53 12.782-3.53 4.383 0 7.893.75 10.53 2.252 2.638 1.502 4.647 3.43 6.026 5.783h.122V50.657c0-.81.406-1.217 1.218-1.217h7.79c.812 0 1.218.406 1.218 1.217v80.347c0 .81-.406 1.217-1.217 1.217h-7.79zm-15.462-8.155c6.655 0 10.956-2.963 12.904-8.887.486-1.38.83-3.023 1.034-4.93.203-1.908.304-4.322.304-7.244 0-2.922-.1-5.316-.304-7.182-.203-1.867-.548-3.53-1.035-4.992-1.95-5.843-6.25-8.765-12.905-8.765-6.493 0-10.753 2.922-12.782 8.765-.487 1.624-.832 3.41-1.035 5.357-.203 1.948-.304 4.22-.304 6.817 0 2.678.1 4.99.304 6.94.203 1.947.548 3.692 1.035 5.234 2.03 5.924 6.29 8.887 12.782 8.887zm66.225 9.495c-5.925 0-10.896-1.36-14.913-4.078-4.017-2.72-6.837-6.635-8.46-11.748-.65-1.866-1.137-3.936-1.462-6.208-.324-2.273-.486-5.113-.486-8.522 0-3.41.14-6.27.425-8.582.284-2.313.75-4.363 1.4-6.148 1.623-5.113 4.443-9.01 8.46-11.687 4.018-2.678 8.826-4.017 14.426-4.017s10.41 1.36 14.427 4.078c4.017 2.72 6.837 6.594 8.46 11.626.325.974.59 1.968.792 2.983.202 1.014.384 2.17.547 3.47.162 1.298.284 2.78.365 4.442.08 1.663.122 3.59.122 5.782 0 .81-.447 1.217-1.34 1.217H470.44c-.487 0-.73.243-.73.73 0 1.623.08 2.962.243 4.017.164 1.055.407 2.07.732 3.043 1.136 3.41 2.962 5.945 5.478 7.61 2.516 1.663 5.6 2.495 9.252 2.495 3.49 0 6.452-.61 8.887-1.827 2.433-1.217 4.462-2.76 6.086-4.625.65-.65 1.257-.73 1.826-.244l4.99 4.503c.57.487.61 1.055.123 1.705-2.354 2.92-5.458 5.315-9.313 7.182-3.855 1.867-8.34 2.8-13.452 2.8zm12.904-35.547c.487 0 .73-.244.73-.73 0-2.68-.284-4.87-.852-6.574-.974-2.923-2.617-5.175-4.93-6.758-2.313-1.582-5.133-2.374-8.46-2.374-3.328 0-6.15.792-8.462 2.374-2.313 1.583-3.956 3.835-4.93 6.757-.568 1.703-.852 3.894-.852 6.572 0 .487.243.73.73.73h27.026zm27.878-47.356c0-.81.405-1.217 1.217-1.217h29.337c8.36 0 14.61 1.968 18.748 5.904 4.14 3.936 6.208 9.232 6.208 15.887 0 4.87-1.034 8.766-3.104 11.688-2.07 2.92-4.728 5.03-7.975 6.33v.243c1.38.407 2.82 1.117 4.322 2.132 1.5 1.014 2.86 2.313 4.078 3.895 1.218 1.583 2.212 3.47 2.983 5.66.77 2.192 1.156 4.668 1.156 7.427 0 7.79-2.333 13.675-7 17.652-4.666 3.977-11.34 5.965-20.025 5.965h-28.73c-.813 0-1.218-.405-1.218-1.216V50.657zm30.312 34.574c4.626 0 8.197-1.176 10.713-3.53 2.516-2.353 3.774-5.478 3.774-9.374 0-3.976-1.257-7.14-3.773-9.495-2.516-2.353-6.087-3.53-10.713-3.53h-18.747c-.487 0-.73.244-.73.73V84.5c0 .487.243.73.73.73h18.747zm-19.478 36.4c0 .487.244.73.73.73h19.357c4.95 0 8.724-1.237 11.32-3.713 2.598-2.475 3.897-5.782 3.897-9.92 0-4.14-1.3-7.447-3.896-9.923-2.597-2.475-6.37-3.713-11.32-3.713h-19.357c-.487 0-.73.245-.73.732v25.808zm76.45 11.2c-5.112 0-8.764-1.238-10.956-3.713-2.19-2.476-3.286-6.35-3.286-11.626V50.658c0-.81.405-1.217 1.217-1.217h7.792c.812 0 1.217.406 1.217 1.217v66.225c0 2.435.466 4.12 1.4 5.052.933.933 2.414 1.4 4.443 1.4h2.313c.81 0 1.217.406 1.217 1.217v7.062c0 .812-.406 1.218-1.217 1.218h-4.14zm41.148.73c-5.68 0-10.53-1.38-14.548-4.14-4.017-2.758-6.837-6.613-8.46-11.564-.65-2.03-1.137-4.16-1.46-6.39-.326-2.233-.488-5.053-.488-8.462 0-3.41.162-6.208.487-8.4.324-2.19.81-4.3 1.46-6.33 1.624-5.032 4.444-8.907 8.46-11.626 4.018-2.72 8.868-4.078 14.55-4.078 5.68 0 10.53 1.36 14.546 4.078 4.02 2.72 6.84 6.594 8.462 11.626.65 2.03 1.136 4.14 1.46 6.33.325 2.192.488 4.99.488 8.4s-.163 6.23-.487 8.46c-.325 2.233-.812 4.363-1.46 6.392-1.624 4.95-4.444 8.806-8.462 11.565-4.016 2.76-8.865 4.14-14.546 4.14zm0-9.495c3.246 0 6.005-.792 8.278-2.374 2.272-1.582 3.895-3.834 4.87-6.756.486-1.623.83-3.307 1.034-5.052.203-1.745.304-4.037.304-6.878 0-2.84-.1-5.113-.304-6.817-.203-1.704-.548-3.368-1.035-4.99-.973-2.923-2.596-5.175-4.868-6.758-2.273-1.583-5.032-2.375-8.278-2.375-3.247 0-6.006.792-8.278 2.374-2.273 1.582-3.896 3.834-4.87 6.756-.487 1.623-.832 3.287-1.035 4.99-.202 1.705-.303 3.978-.303 6.818 0 2.84.1 5.133.304 6.878s.55 3.43 1.036 5.052c.974 2.922 2.597 5.174 4.87 6.757 2.272 1.583 5.03 2.375 8.278 2.375zm37.86-21.06c0-3.247.162-6.067.487-8.462.325-2.394.772-4.484 1.34-6.27 1.623-5.112 4.463-9.008 8.52-11.686 4.06-2.678 8.888-4.017 14.488-4.017 4.464 0 8.38.872 11.748 2.617 3.368 1.745 6.107 4.16 8.217 7.244.406.65.284 1.218-.365 1.705l-5.357 4.382c-.648.487-1.216.447-1.703-.12-1.704-2.11-3.49-3.694-5.357-4.75-1.866-1.054-4.26-1.582-7.182-1.582-3.165 0-5.884.75-8.156 2.253-2.273 1.5-3.896 3.794-4.87 6.878-.487 1.542-.832 3.246-1.035 5.113-.202 1.865-.304 4.097-.304 6.694 0 2.597.102 4.85.304 6.756.203 1.908.548 3.632 1.035 5.174.974 3.084 2.597 5.377 4.87 6.878 2.272 1.502 4.99 2.253 8.156 2.253 2.922 0 5.316-.528 7.182-1.583 1.867-1.055 3.653-2.638 5.357-4.748.487-.568 1.055-.608 1.704-.12l5.358 4.38c.65.488.77 1.056.365 1.705-2.11 3.083-4.85 5.498-8.217 7.243-3.368 1.745-7.284 2.617-11.748 2.617-5.6 0-10.43-1.34-14.487-4.017-4.057-2.68-6.897-6.574-8.52-11.687-.568-1.786-1.015-3.875-1.34-6.27-.324-2.394-.486-5.254-.486-8.582zm99.824 29.216c-.812 0-1.46-.405-1.948-1.216l-16.556-27.148-10.104 11.81v15.338c0 .81-.406 1.217-1.218 1.217h-7.79c-.812 0-1.218-.405-1.218-1.216V50.657c0-.81.406-1.217 1.217-1.217h7.792c.812 0 1.218.406 1.218 1.217v51.495l23.008-27.147c.65-.73 1.38-1.096 2.19-1.096h9.01c.405 0 .65.12.73.364.08.244 0 .528-.243.852L779.65 95.943l21.547 35.06c.162.244.182.508.06.792-.12.284-.385.426-.79.426h-9.01z" fill="#181928"/></g></g></g></svg>